<?xml version="1.0" encoding="utf-8"?>
<!-- Generator: Adobe Illustrator 22.1.0, SVG Export Plug-In . SVG Version: 6.00 Build 0)  -->
<svg version="1.1" id="Layer_1" xmlns="http://www.w3.org/2000/svg" xmlns:xlink="http://www.w3.org/1999/xlink" x="0px" y="0px"
	 viewBox="0 0 76.8 76.2" style="enable-background:new 0 0 76.8 76.2;" xml:space="preserve">
<g>
	<path d="M56.9,41.2c0-3.9-3.2-7-7-7c-3.9,0-7,3.1-7,7s3.1,7,7,7S56.9,45.2,56.9,41.2z M46.9,41.2c0-1.7,1.3-3,3-3s3,1.3,3,3
		c0,1.6-1.4,3-3,3S46.9,42.8,46.9,41.2z"/>
	<path d="M74.9,24.2H25.7v4h47.1v40.1L60.4,52c-0.4-0.5-1-0.8-1.6-0.8s-1.2,0.3-1.6,0.8l-8.4,11.1L30.4,39c-0.4-0.5-1-0.8-1.6-0.8
		s-1.2,0.3-1.6,0.8L4.9,68.3V28.2h4.5v-4H2.9c-1.1,0-2,0.9-2,2v48c0,0.1,0,0.2,0,0.3c0,0,0,0,0,0.1c0,0.2,0.1,0.3,0.1,0.5
		c0,0,0,0,0,0.1c0.1,0.1,0.1,0.2,0.2,0.3c0,0,0.1,0,0.1,0.1c0.1,0.1,0.2,0.2,0.4,0.3h0.1C1.9,76,2,76,2.2,76.1h0.1
		c0.2,0,0.3,0.1,0.5,0.1h72c1.1,0,2-0.9,2-2c0.1-0.1,0.1-0.1,0.1-0.2V26.2C76.9,25.2,75.9,24.2,74.9,24.2z M6.9,72.2l22-28.7
		l18.4,24.1l3.5,4.6H6.9z M55.9,72.2l-4.5-5.9l7.5-9.8l11.9,15.7C70.8,72.2,55.9,72.2,55.9,72.2z"/>
	<path d="M34.4,15.7l-15-15c-0.1-0.1-0.2-0.2-0.4-0.3c-0.1,0-0.1-0.1-0.2-0.1s-0.2-0.1-0.3-0.1c-0.1,0-0.2,0-0.2-0.1
		c-0.1,0-0.1-0.1-0.2-0.1c-0.2,0-0.3,0-0.5,0l0,0c-0.2,0-0.3,0-0.5,0C17,0,17,0,16.9,0.1c-0.1,0-0.2,0-0.3,0.1
		c-0.1,0-0.2,0.1-0.2,0.1c-0.1,0-0.1,0.1-0.2,0.1c-0.1,0.1-0.3,0.2-0.4,0.3l-15,15c-1,1-1,2.6,0,3.5c1,1,2.6,1,3.5,0L15.1,8.5v11.3
		v1.9v16.8c0,1.4,1.1,2.5,2.5,2.5s2.5-1.1,2.5-2.5V21.8v-1.9V8.5l10.7,10.7c0.5,0.5,1.1,0.7,1.8,0.7s1.3-0.2,1.8-0.7
		C35.3,18.3,35.3,16.7,34.4,15.7z"/>
</g>
</svg>
